HIERARCHY
ROOT Hips
{
	OFFSET 0.00000 0.00000 0.00000
	CHANNELS 6 Xposition Yposition Zposition Zrotation Yrotation Xrotation 
	JOINT LHipJoint
	{
		OFFSET 0 0 0
		CHANNELS 3 Zrotation Yrotation Xrotation
		JOINT LeftHip
		{
			OFFSET 1.36337 -1.57426 1.11036
			CHANNELS 3 Zrotation Yrotation Xrotation
			JOINT LeftKnee
			{
				OFFSET 2.38468 -6.55187 0.00000
				CHANNELS 3 Zrotation Yrotation Xrotation
				JOINT LeftAnkle
				{
					OFFSET 2.37166 -6.51609 0.00000
					CHANNELS 3 Zrotation Yrotation Xrotation
					JOINT LeftToe
					{
						OFFSET 0.29078 -0.79891 2.01393
						CHANNELS 3 Zrotation Yrotation Xrotation
						End Site
						{
							OFFSET 0.00000 -0.00000 1.07924
						}
					}
				}
			}
		}
	}
	JOINT RHipJoint
	{
		OFFSET 0 0 0
		CHANNELS 3 Zrotation Yrotation Xrotation
		JOINT RightHip
		{
			OFFSET -1.36349 -1.57426 1.11036
			CHANNELS 3 Zrotation Yrotation Xrotation
			JOINT RightKnee
			{
				OFFSET -2.29562 -6.30717 0.00000
				CHANNELS 3 Zrotation Yrotation Xrotation
				JOINT RightAnkle
				{
					OFFSET -2.40985 -6.62100 0.00000
					CHANNELS 3 Zrotation Yrotation Xrotation
					JOINT RightToe
					{
						OFFSET -0.23197 -0.63733 1.92232
						CHANNELS 3 Zrotation Yrotation Xrotation
						End Site
						{
							OFFSET -0.00000 -0.00000 1.01562
						}
					}
				}
			}
		}
	}
	JOINT lowerback
	{
		OFFSET 0 0 0
		CHANNELS 3 Zrotation Yrotation Xrotation
		JOINT Chest
		{
			OFFSET -0.08565 2.03602 -0.24562
			CHANNELS 3 Zrotation Yrotation Xrotation
			JOINT Chest2
			{
				OFFSET -0.00036 2.05693 0.00216
				CHANNELS 3 Zrotation Yrotation Xrotation
				JOINT lowerneck
				{
					OFFSET 0 0 0
					CHANNELS 3 Zrotation Yrotation Xrotation
					JOINT Neck
					{
						OFFSET -0.03664 1.69515 0.31789
						CHANNELS 3 Zrotation Yrotation Xrotation
						JOINT Head
						{
							OFFSET 0.00932 1.70181 -0.46013
							CHANNELS 3 Zrotation Yrotation Xrotation
							End Site
							{
								OFFSET 0.01243 1.77620 -0.19377
							}
						}
					}
				}
				JOINT LeftCollar
				{
					OFFSET 0 0 0
					CHANNELS 3 Zrotation Yrotation Xrotation
					JOINT LeftShoulder
					{
						OFFSET 3.74344 0.81315 -0.36647
CHANNELS 3 Zrotation Xrotation Yrotation
						JOINT LeftElbow
						{
OFFSET 0 -4.971850 -0.000000
CHANNELS 3 Zrotation Xrotation Yrotation
							JOINT LeftWrist
							{
OFFSET 0 -3.358110 0.000000
CHANNELS 3 Zrotation Xrotation Yrotation
								JOINT lhand
								{
									OFFSET 0 0 0
CHANNELS 3 Zrotation Xrotation Yrotation
									JOINT LFingers
									{
OFFSET 0 -0.622780 0.000000
CHANNELS 3 Zrotation Xrotation Yrotation
										End Site
										{
OFFSET 0 -0.502100 0.000000
										}
									}
								}
								JOINT LThumb
								{
OFFSET 0 0.000000 0.000000
CHANNELS 3 Zrotation Xrotation Yrotation
									End Site
									{
OFFSET 0 -0.509760 0.509760
									}
								}
							}
						}
					}
				}
				JOINT RightCollar
				{
					OFFSET 0 0 0
					CHANNELS 3 Zrotation Yrotation Xrotation
					JOINT RightShoulder
					{
						OFFSET -3.75385 0.50666 -0.06525
CHANNELS 3 Zrotation Xrotation Yrotation
						JOINT RightElbow
						{
OFFSET 0 -4.964930 -0.000000
CHANNELS 3 Zrotation Xrotation Yrotation
							JOINT RightWrist
							{
OFFSET 0 -3.349290 0.000000
CHANNELS 3 Zrotation Xrotation Yrotation
								JOINT rhand
								{
									OFFSET 0 0 0
CHANNELS 3 Zrotation Xrotation Yrotation
									JOINT RFingers
									{
OFFSET 0 -0.638040 0.000000
CHANNELS 3 Zrotation Xrotation Yrotation
										End Site
										{
OFFSET 0 -0.514410 0.000000
										}
									}
								}
								JOINT RThumb
								{
OFFSET 0 0.000000 0.000000
CHANNELS 3 Zrotation Xrotation Yrotation
									End Site
									{
OFFSET 0 -0.522260 0.522260
									}
								}
							}
						}
					}
				}
			}
		}
	}
}
MOTION
Frames: 8
Frame Time: 0.008333333333333333
10.918800 16.825800 -1.231500 143.363000 -85.808900 -140.176000 0.000000 0.000000 0.000000 -16.169300 -7.613100 -0.657200 1.223600 7.015900 19.762600 1.487400 17.632000 -35.067600 0.069800 1.704100 4.688700 0.000000 0.000000 0.000000 9.791100 6.120300 0.048700 -0.448700 -4.297800 11.916000 0.405500 -19.555900 -24.208700 -0.003500 -0.381200 1.047300 -6.306300 -1.344500 -6.962900 1.107500 -1.304000 0.881300 4.561600 -0.838700 5.007200 -17.798100 -10.840400 -14.073100 9.618900 -14.519300 26.931000 4.163600 -7.338900 13.507700 -0.000000 -0.000000 0.000000 -1.287700 -2.986000 -39.103500 11.412300 -18.917500 1.907500 22.462000 -10.094000 9.080100 0.000000 0.000000 0.000000 -7.125000 0.000000 0.000000 -3.199600 20.175700 -1.902700 -0.000000 -0.000000 0.000000 -2.300200 -1.654900 20.192400 -12.738700 -20.903200 -2.359200 -12.551600 -0.588100 29.820800 0.000000 0.000000 0.000000 7.125000 0.000000 -0.000000 21.112400 59.137400 -7.500600
10.917010 16.824596 -1.232085 144.078798 -85.775563 -140.908972 0.000000 0.000000 0.000000 -16.161152 -7.639404 -0.597601 1.223252 7.014943 19.759693 1.518864 17.627710 -35.237308 0.073704 1.751556 4.819456 0.000000 0.000000 0.000000 9.812984 6.067875 0.025297 -0.450586 -4.306590 11.940773 0.403187 -19.510932 -24.156318 -0.004002 -0.404559 1.111700 -6.334036 -1.360512 -6.941598 1.150966 -1.326903 0.863687 4.620889 -0.850278 4.981577 -17.922409 -10.788930 -14.024140 9.771614 -14.471850 26.924876 4.256154 -7.316827 13.512917 0.000000 0.000000 0.000000 -1.384835 -3.006482 -38.752750 11.449046 -18.973325 1.919391 22.253224 -9.588100 8.972646 0.000000 0.000000 0.000000 -7.125000 0.000000 0.000000 -3.346969 20.306121 -1.980660 0.000000 0.000000 0.000000 -2.354543 -1.574167 20.291771 -12.774496 -20.955856 -2.372005 -12.738221 -0.519821 29.755780 0.000000 0.000000 0.000000 7.125000 0.000000 0.000000 20.869850 59.119189 -7.400379
10.913786 16.826916 -1.232520 145.172170 -85.776317 -141.967042 0.000000 0.000000 0.000000 -16.077811 -7.581581 -0.697776 1.230756 7.035662 19.821067 1.465314 17.829569 -35.132149 0.067388 1.674979 4.608252 0.000000 0.000000 0.000000 9.878316 6.042770 0.030751 -0.442399 -4.267610 11.830733 0.414958 -19.519976 -24.060108 -0.001190 -0.219976 0.604380 -6.305133 -1.355212 -7.034987 1.198850 -1.318577 0.856849 4.654961 -0.847391 5.026698 -17.972674 -10.772737 -13.916714 9.787973 -14.453893 26.865736 4.278156 -7.315724 13.468911 0.000000 0.000000 0.000000 -1.474080 -3.015680 -38.475107 11.474324 -19.011594 1.927584 21.935255 -9.313635 8.866776 0.000000 0.000000 0.000000 -7.125000 0.000000 0.000000 -3.573134 20.442101 -2.104231 0.000000 0.000000 0.000000 -2.419761 -1.485817 20.336159 -12.832879 -21.041900 -2.392945 -12.886230 -0.434279 30.043406 0.000000 0.000000 0.000000 7.125000 0.000000 0.000000 20.931979 59.419907 -7.575695
10.909313 16.827857 -1.230196 146.424508 -85.822016 -143.166159 0.000000 0.000000 0.000000 -15.984170 -7.684375 -0.736321 1.240986 7.063790 19.904444 1.504504 17.762164 -35.284142 0.075731 1.775490 4.885753 0.000000 0.000000 0.000000 9.945265 5.832871 -0.021483 -0.430483 -4.210750 11.670520 0.418586 -19.403636 -23.833597 -0.003061 -0.355952 0.977950 -6.203455 -1.398892 -7.151393 1.257862 -1.380477 0.881756 4.650468 -0.879793 5.125651 -17.953386 -10.735346 -14.041856 9.715859 -14.359563 26.920107 4.261226 -7.276155 13.493110 0.000000 0.000000 0.000000 -1.539002 -3.078185 -38.346391 11.460193 -18.990272 1.923035 22.079139 -9.443884 8.991639 0.000000 0.000000 0.000000 -7.125000 0.000000 0.000000 -3.472397 20.298156 -2.055928 0.000000 0.000000 0.000000 -2.548682 -1.617994 20.276976 -12.786601 -20.973766 -2.376322 -13.123935 -0.120027 29.382622 0.000000 0.000000 0.000000 7.125000 0.000000 0.000000 20.196949 58.857653 -7.023538
10.909890 16.826683 -1.229738 147.811003 -85.848359 -144.608302 0.000000 0.000000 0.000000 -15.887068 -7.657795 -0.712350 1.250560 7.090039 19.982401 1.525309 17.705569 -35.345165 0.069681 1.703160 4.686047 0.000000 0.000000 0.000000 10.062042 5.822768 0.115208 -0.420240 -4.160733 11.529223 0.423451 -19.374101 -23.737292 -0.002055 -0.291665 0.801312 -6.109942 -1.411263 -7.087229 1.274338 -1.409708 0.896029 4.612045 -0.891570 5.105848 -17.929197 -10.670327 -14.041872 9.757259 -14.291065 26.956180 4.289214 -7.241665 13.497695 0.000000 0.000000 0.000000 -1.504092 -3.088459 -38.326921 11.432401 -18.947985 1.913940 22.074287 -9.682846 9.108534 0.000000 0.000000 0.000000 -7.125000 0.000000 0.000000 -3.478553 20.173124 -2.069260 0.000000 0.000000 0.000000 -2.560929 -1.678625 19.937631 -12.734229 -20.896521 -2.357619 -13.886214 0.774708 27.979704 0.000000 0.000000 0.000000 7.125000 0.000000 0.000000 18.442094 57.704009 -5.867975
10.907389 16.826600 -1.228335 148.259816 -85.829811 -145.086269 0.000000 0.000000 0.000000 -15.916093 -7.801591 -0.596980 1.254590 7.100947 20.014701 1.572212 17.685689 -35.582464 0.070491 1.713014 4.713208 0.000000 0.000000 0.000000 10.071750 5.744755 0.144316 -0.416070 -4.140189 11.471418 0.431422 -19.358079 -23.633575 -0.002025 -0.291055 0.799749 -6.028918 -1.374456 -7.092431 1.225439 -1.364170 0.926277 4.519631 -0.867431 5.131203 -17.950857 -10.641668 -13.915988 9.936320 -14.310809 26.839707 4.364577 -7.236175 13.444113 0.000000 0.000000 0.000000 -1.457241 -3.079436 -38.512142 11.373800 -18.858869 1.894980 22.541380 -9.925169 9.300746 0.000000 0.000000 0.000000 -7.125000 0.000000 0.000000 -3.148562 19.932396 -1.889340 0.000000 0.000000 0.000000 -2.473732 -1.711137 19.851914 -12.593287 -20.688378 -2.307661 -12.921486 0.104394 29.210514 0.000000 0.000000 0.000000 7.125000 0.000000 0.000000 20.282710 58.651637 -6.954148
10.904118 16.825865 -1.226800 147.753022 -85.865233 -144.532285 0.000000 0.000000 0.000000 -15.915093 -7.771376 -0.667034 1.258056 7.110334 20.042685 1.576196 17.603755 -35.528121 0.069443 1.699565 4.676010 0.000000 0.000000 0.000000 10.042010 5.680437 0.123415 -0.412870 -4.124558 11.427303 0.421499 -19.349501 -23.715429 -0.003305 -0.368500 1.012381 -6.073345 -1.445158 -7.195299 1.242292 -1.447370 0.988182 4.550778 -0.915820 5.267176 -17.889606 -10.681637 -14.313835 9.903197 -14.310002 26.984331 4.326724 -7.217517 13.579436 0.000000 0.000000 0.000000 -1.540193 -3.088948 -38.383777 11.397625 -18.895061 1.902692 22.862006 -10.101438 9.315249 0.000000 0.000000 0.000000 -7.125000 0.000000 0.000000 -2.919390 19.892739 -1.754107 0.000000 0.000000 0.000000 -2.508294 -1.944123 19.688205 -12.510156 -20.565223 -2.278345 -12.202894 -0.105870 29.301146 0.000000 0.000000 0.000000 7.125000 0.000000 0.000000 21.089526 58.577649 -7.206208
10.901509 16.825346 -1.226877 148.696344 -85.911836 -145.459648 0.000000 0.000000 0.000000 -15.825785 -7.793567 -0.681326 1.261543 7.119815 20.070791 1.583931 17.571282 -35.540281 0.078708 1.809142 4.978555 0.000000 0.000000 0.000000 10.139279 5.706747 0.151509 -0.409580 -4.108508 11.382136 0.430154 -19.409700 -23.731303 -0.001916 -0.284131 0.780704 -6.053430 -1.499565 -7.183887 1.320974 -1.526210 0.997141 4.612945 -0.956271 5.281932 -17.908731 -10.614953 -14.396899 9.894739 -14.172316 26.930391 4.351056 -7.154822 13.551239 0.000000 0.000000 0.000000 -1.670874 -3.075498 -38.240320 11.356628 -18.832869 1.889465 22.843385 -10.310495 9.343621 0.000000 0.000000 0.000000 -7.125000 0.000000 0.000000 -2.933613 19.863460 -1.764597 0.000000 0.000000 0.000000 -2.659178 -1.951397 19.927328 -12.472932 -20.510144 -2.265255 -12.486334 -0.076890 29.383174 0.000000 0.000000 0.000000 7.125000 0.000000 0.000000 20.856431 58.716720 -7.192201
